STARTFONT 2.1
COMMENT space_size 12
FONT seven_seg
SIZE 34 72 72
FONTBOUNDINGBOX 18 34 0 -6
STARTPROPERTIES 2
FONT_DESCENT 6
FONT_ASCENT 28
ENDPROPERTIES
CHARS 36
STARTCHAR char_0x20
ENCODING 32
SWIDTH 0 0
DWIDTH 18 0
BBX 18 33 0 -6
BITMAP
000000
000000
000000
000000
000000
000000
000000
000000
000000
000000
000000
000000
000000
000000
000000
000000
000000
000000
000000
000000
000000
000000
000000
000000
000000
000000
000000
000000
000000
000000
000000
000000
000000
ENDCHAR
STARTCHAR char_0x2b
ENCODING 43
SWIDTH 0 0
DWIDTH 15 0
BBX 15 33 0 -6
BITMAP
0000
0000
0000
0000
0000
0000
0000
0E00
0F00
0E80
0E40
0E20
0E20
FFE0
FFF0
FFE8
4F14
2E8A
1E46
0E3E
0E20
0E20
0520
02A0
0160
00E0
0000
0000
0000
0000
0000
0000
0000
ENDCHAR
STARTCHAR char_0x2d
ENCODING 45
SWIDTH 0 0
DWIDTH 16 0
BBX 16 33 0 -6
BITMAP
0000
0000
0000
0000
0000
0000
0000
0000
0000
0000
0000
0000
0000
FFF0
FFF8
FFF4
400A
2005
1003
0FFF
0000
0000
0000
0000
0000
0000
0000
0000
0000
0000
0000
0000
0000
ENDCHAR
STARTCHAR char_0x2e
ENCODING 46
SWIDTH 0 0
DWIDTH 8 0
BBX 8 33 0 -6
BITMAP
00
00
00
00
00
00
00
00
00
00
00
00
00
00
00
00
00
00
00
00
00
00
00
F0
F8
F4
F2
49
25
13
0F
00
00
ENDCHAR
STARTCHAR char_0x30
ENCODING 48
SWIDTH 0 0
DWIDTH 18 0
BBX 18 34 0 -6
BITMAP
000000
3FF000
FFFC00
FFFE00
F01D00
E81C80
E41C40
E3FC40
E21C40
E21C40
E21C40
E21C40
E21C40
E21C40
520A40
EA1D40
F61EC0
EE1DC0
E41C80
E21C40
E21C40
E21C40
E21C40
E21C40
E21C40
FFFC40
FFFC40
7FF240
200140
1000C0
0801C0
03FF00
000000
000000
ENDCHAR
STARTCHAR char_0x31
ENCODING 49
SWIDTH 0 0
DWIDTH 18 0
BBX 18 34 0 -6
BITMAP
000000
001C00
001E00
001D00
001C80
001C40
001C40
001C40
001C40
001C40
001C40
001C40
001C40
001C40
000A40
001D40
001EC0
001DC0
001C80
001C40
001C40
001C40
001C40
001C40
001C40
001C40
001C40
001C40
000A40
000540
0002C0
0001C0
000000
000000
ENDCHAR
STARTCHAR char_0x32
ENCODING 50
SWIDTH 0 0
DWIDTH 18 0
BBX 18 34 0 -6
BITMAP
000000
3FF000
3FFC00
3FFE00
101D00
081C80
041C40
03FC40
001C40
001C40
001C40
001C40
001C40
7FFC40
7FF840
FFF840
F00440
E802C0
E40180
E3FF80
E20000
E20000
E20000
E20000
E20000
FFF800
FFFC00
7FFA00
200500
100280
080180
03FF80
000000
000000
ENDCHAR
STARTCHAR char_0x33
ENCODING 51
SWIDTH 0 0
DWIDTH 18 0
BBX 18 34 0 -6
BITMAP
000000
3FF000
3FFC00
3FFE00
101D00
081C80
041C40
03FC40
001C40
001C40
001C40
001C40
001C40
3FFC40
3FFC40
3FFE40
101D40
081CC0
041C00
03FC40
001C40
001C40
001C40
001C40
001C40
7FFC40
7FFC40
7FF240
200140
1000C0
0801C0
07FF00
000000
000000
ENDCHAR
STARTCHAR char_0x34
ENCODING 52
SWIDTH 0 0
DWIDTH 18 0
BBX 18 34 0 -6
BITMAP
000000
001C00
E01E00
F01D00
E81C80
E41C40
E21C40
E21C40
E21C40
E21C40
E21C40
E21C40
E21C40
FFFC40
7FF840
7FFE40
201D40
101CC0
081C00
07FC40
001C40
001C40
001C40
001C40
001C40
001C40
001C40
001C40
000A40
000540
0002C0
0001C0
000000
000000
ENDCHAR
STARTCHAR char_0x35
ENCODING 53
SWIDTH 0 0
DWIDTH 18 0
BBX 18 34 0 -6
BITMAP
000000
3FF000
FFF800
FFF400
F00A00
E80500
E40300
E3FF00
E20000
E20000
E20000
E20000
E20000
FFF800
7FFC00
7FFE00
201D00
101C80
081C40
07FC40
001C40
001C40
001C40
001C40
001C40
7FFC40
7FFC40
7FF240
200140
1000C0
0801C0
07FF00
000000
000000
ENDCHAR
STARTCHAR char_0x36
ENCODING 54
SWIDTH 0 0
DWIDTH 18 0
BBX 18 34 0 -6
BITMAP
000000
3FF000
FFF800
FFF400
F00A00
E80500
E40300
E3FF00
E20000
E20000
E20000
E20000
E20000
FFF800
FFFC00
FFFE00
F01D00
E81C80
E41C40
E3FC40
E21C40
E21C40
E21C40
E21C40
E21C40
FFFC40
FFFC40
7FF240
200140
1000C0
0801C0
03FF00
000000
000000
ENDCHAR
STARTCHAR char_0x37
ENCODING 55
SWIDTH 0 0
DWIDTH 18 0
BBX 18 34 0 -6
BITMAP
000000
7FF000
7FFC00
7FFE00
201D00
101C80
081C40
07FC40
001C40
001C40
001C40
001C40
001C40
001C40
000A40
001D40
001EC0
001DC0
001C80
001C40
001C40
001C40
001C40
001C40
001C40
001C40
001C40
001C40
000A40
000540
0002C0
0001C0
000000
000000
ENDCHAR
STARTCHAR char_0x38
ENCODING 56
SWIDTH 0 0
DWIDTH 18 0
BBX 18 34 0 -6
BITMAP
000000
3FF000
FFFC00
FFFE00
F01D00
E81C80
E41C40
E3FC40
E21C40
E21C40
E21C40
E21C40
E21C40
FFFC40
7FF840
FFFC40
F01E40
E81D40
E41C80
E3FC40
E21C40
E21C40
E21C40
E21C40
E21C40
FFFC40
FFFC40
7FF240
200140
1000C0
0801C0
07FF00
000000
000000
ENDCHAR
STARTCHAR char_0x39
ENCODING 57
SWIDTH 0 0
DWIDTH 18 0
BBX 18 34 0 -6
BITMAP
000000
3FF000
FFFC00
FFFE00
F01D00
E81C80
E41C40
E3FC40
E21C40
E21C40
E21C40
E21C40
E21C40
FFFC40
7FF840
7FFC40
201E40
101D40
081C80
07FC40
001C40
001C40
001C40
001C40
001C40
7FFC40
7FFC40
7FF240
200140
1000C0
0801C0
07FF00
000000
000000
ENDCHAR
STARTCHAR char_0x3a
ENCODING 58
SWIDTH 0 0
DWIDTH 8 0
BBX 8 33 0 -6
BITMAP
00
00
00
00
00
00
00
00
00
F0
F8
F4
F2
49
25
F3
FF
F4
F2
49
25
13
0F
00
00
00
00
00
00
00
00
00
00
ENDCHAR
STARTCHAR char_0x41
ENCODING 65
SWIDTH 0 0
DWIDTH 18 0
BBX 18 33 0 -6
BITMAP
3FF000
FFFC00
FFFE00
F01D00
E81C80
E41C40
E3FC40
E21C40
E21C40
E21C40
E21C40
E21C40
FFFC40
7FF840
FFFC40
F01E40
E81D40
E41C80
E3FC40
E21C40
E21C40
E21C40
E21C40
E21C40
E21C40
E21C40
520A40
2A0540
1602C0
0A0140
0600C0
000000
000000
ENDCHAR
STARTCHAR char_0x43
ENCODING 67
SWIDTH 0 0
DWIDTH 18 0
BBX 18 33 0 -6
BITMAP
3FF000
FFF800
FFF400
F00A00
E80500
E40300
E3FF00
E20000
E20000
E20000
E20000
E20000
E20000
520000
EA0000
F60000
EA0000
E40000
E20000
E20000
E20000
E20000
E20000
E20000
FFF000
FFF800
7FF400
200A00
100500
080300
03FF00
000000
000000
ENDCHAR
STARTCHAR char_0x44
ENCODING 68
SWIDTH 0 0
DWIDTH 18 0
BBX 18 33 0 -6
BITMAP
3FF000
FFFC00
FFFE00
F01D00
E81C80
E41C40
E3FC40
E21C40
E21C40
E21C40
E21C40
E21C40
E21C40
520A40
EA0540
F61AC0
EA3DC0
E47AC0
E2F500
E3E300
E3C100
E78200
EF0400
FE0800
FC1000
F82000
704000
288000
150000
0A0000
060000
000000
000000
ENDCHAR
STARTCHAR char_0x45
ENCODING 69
SWIDTH 0 0
DWIDTH 18 0
BBX 18 33 0 -6
BITMAP
3FF000
FFF800
FFF400
F00A00
E80500
E40300
E3FF00
E20000
E20000
E20000
E20000
E20000
FFF000
FFF800
FFF400
F00A00
E80500
E40300
E3FF00
E20000
E20000
E20000
E20000
E20000
FFF000
FFF800
7FF400
200A00
100500
080300
03FF00
000000
000000
ENDCHAR
STARTCHAR char_0x46
ENCODING 70
SWIDTH 0 0
DWIDTH 18 0
BBX 18 33 0 -6
BITMAP
3FF000
FFF800
FFF400
F00A00
E80500
E40300
E3FF00
E20000
E20000
E20000
E20000
E20000
FFF000
FFF800
FFF400
F00A00
E80500
E40300
E3FF00
E20000
E20000
E20000
E20000
E20000
E20000
E20000
520000
2A0000
160000
0A0000
060000
000000
000000
ENDCHAR
STARTCHAR char_0x47
ENCODING 71
SWIDTH 0 0
DWIDTH 18 0
BBX 18 33 0 -6
BITMAP
3FF000
FFF800
FFF400
F00A00
E80500
E40300
E3FF00
E20000
E20000
E20000
E20000
E20000
E20000
521C00
EA1E00
F61D00
EA1C80
E41C40
E21C40
E21C40
E21C40
E21C40
E21C40
E21C40
FFFC40
FFFC40
7FF240
200140
1000C0
0801C0
03FF00
000000
000000
ENDCHAR
STARTCHAR char_0x48
ENCODING 72
SWIDTH 0 0
DWIDTH 18 0
BBX 18 33 0 -6
BITMAP
001C00
E01C00
E01E00
F01D00
E81C80
E41C40
E21C40
E21C40
E21C40
E21C40
E21C40
E21C40
FFFC40
7FF840
FFFC40
F01E40
E81D40
E41C80
E3FC40
E21C40
E21C40
E21C40
E21C40
E21C40
E21C40
E21C40
520A40
2A0540
1602C0
0A0140
0600C0
000000
000000
ENDCHAR
STARTCHAR char_0x49
ENCODING 73
SWIDTH 0 0
DWIDTH 18 0
BBX 18 33 0 -6
BITMAP
001C00
001E00
001D00
001C80
001C40
001C40
001C40
001C40
001C40
001C40
001C40
001C40
001C40
000A40
001D40
001EC0
001DC0
001C80
001C40
001C40
001C40
001C40
001C40
001C40
001C40
001C40
001C40
000A40
000540
0002C0
0001C0
000000
000000
ENDCHAR
STARTCHAR char_0x4c
ENCODING 76
SWIDTH 0 0
DWIDTH 18 0
BBX 18 33 0 -6
BITMAP
000000
C00000
E00000
F00000
E80000
E40000
E20000
E20000
E20000
E20000
E20000
E20000
E20000
520000
EA0000
F60000
EE0000
E40000
E20000
E20000
E20000
E20000
E20000
E20000
FFF800
FFFC00
7FFA00
200500
100280
080180
03FF00
000000
000000
ENDCHAR
STARTCHAR char_0x4d
ENCODING 77
SWIDTH 0 0
DWIDTH 18 0
BBX 18 33 0 -6
BITMAP
400800
E01C00
F03E00
E87D00
EEfC80
EfdC40
Ef9C40
E71C40
E31C40
E2bC40
E25C40
E21C40
E21C40
521A40
EA1D40
F61EC0
EA1D40
E41C80
E21C40
E21C40
E21C40
E21C40
E21C40
E21C40
E21C40
E21C40
520A40
2A0540
1602C0
0A0140
0600C0
000000
000000
ENDCHAR
STARTCHAR char_0x4e
ENCODING 78
SWIDTH 0 0
DWIDTH 18 0
BBX 18 33 0 -6
BITMAP
400800
E01C00
F01E00
E81D00
EE1C80
EF1C40
EF9C40
E7DC40
E3FC40
E3FC40
E2FC40
E27C40
E21C40
521A40
EA1D40
F61EC0
EA1D40
E41C80
E21C40
E21C40
E21C40
E21C40
E21C40
E21C40
E21C40
E21C40
520A40
2A0540
1602C0
0A0140
0600C0
000000
000000
ENDCHAR
STARTCHAR char_0x4f
ENCODING 79
SWIDTH 0 0
DWIDTH 18 0
BBX 18 33 0 -6
BITMAP
3FF000
FFFC00
FFFE00
F01D00
E81C80
E41C40
E3FC40
E21C40
E21C40
E21C40
E21C40
E21C40
E21C40
520A40
EA1D40
F61EC0
EE1DC0
E41C80
E21C40
E21C40
E21C40
E21C40
E21C40
E21C40
FFFC40
FFFC40
7FF240
200140
1000C0
0801C0
03FF00
000000
000000
ENDCHAR
STARTCHAR char_0x50
ENCODING 80
SWIDTH 0 0
DWIDTH 18 0
BBX 18 33 0 -6
BITMAP
3FF000
FFFC00
FFFE00
F01D00
E81C80
E41C40
E3FC40
E21C40
E21C40
E21C40
E21C40
E21C40
FFFC40
7FF840
FFFC40
F00A40
E80540
E402C0
E3FFC0
E20000
E20000
E20000
E20000
E20000
E20000
E20000
520000
2A0000
160000
0A0000
060000
000000
000000
ENDCHAR
STARTCHAR char_0x52
ENCODING 82
SWIDTH 0 0
DWIDTH 18 0
BBX 18 33 0 -6
BITMAP
3FF000
FFFC00
FFFE00
F01D00
E81C80
E41C40
E3FC40
E21C40
E21C40
E21C40
E21C40
E21C40
FFFC40
7FF840
FFFC40
F00A40
EE0540
EF02C0
EFBFC0
E7C000
E3E000
E1F000
E2F800
E27C00
E23E00
E21D00
520A80
2A0540
1602C0
0A0140
0600C0
000000
000000
ENDCHAR
STARTCHAR char_0x53
ENCODING 83
SWIDTH 0 0
DWIDTH 18 0
BBX 18 33 0 -6
BITMAP
3FF000
FFF800
FFF400
F00A00
E80500
E40300
E3FF00
E20000
E20000
E20000
E20000
E20000
FFF800
7FFC00
7FFE00
201D00
101C80
081C40
07FC40
001C40
001C40
001C40
001C40
001C40
7FFC40
7FFC40
7FF240
200140
1000C0
0801C0
07FF00
000000
000000
ENDCHAR
STARTCHAR char_0x54
ENCODING 84
SWIDTH 0 0
DWIDTH 18 0
BBX 18 33 0 -6
BITMAP
7FF000
7FFC00
7FFE00
201D00
101C80
081C40
07FC40
001C40
001C40
001C40
001C40
001C40
001C40
000A40
001D40
001EC0
001DC0
001C80
001C40
001C40
001C40
001C40
001C40
001C40
001C40
001C40
001C40
000A40
000540
0002C0
0001C0
000000
000000
ENDCHAR
STARTCHAR char_0x55
ENCODING 85
SWIDTH 0 0
DWIDTH 18 0
BBX 18 33 0 -6
BITMAP
000000
400C00
E01E00
F01D00
E81C80
E41C40
E21C40
E21C40
E21C40
E21C40
E21C40
E21C40
E21C40
520A40
EA1D40
F61EC0
EE1DC0
E41C80
E21C40
E21C40
E21C40
E21C40
E21C40
E21C40
FFFC40
FFFC40
7FF240
200140
1000C0
0801C0
03FF00
000000
000000
ENDCHAR
STARTCHAR char_0x56
ENCODING 86
SWIDTH 0 0
DWIDTH 18 0
BBX 18 33 0 -6
BITMAP
000000
E01C00
E01E00
F01D00
E81C80
E41C40
E21C40
E21C40
E21C40
E21C40
E21C40
E21C40
E21C40
520A40
EA0540
F61AC0
EA3DC0
E47AC0
E2F500
E3E300
E3C100
E78200
EF0400
FE0800
FC1000
F82000
704000
288000
150000
0A0000
060000
000000
000000
ENDCHAR
STARTCHAR char_0x58
ENCODING 88
SWIDTH 0 0
DWIDTH 18 0
BBX 18 33 0 -6
BITMAP
001C00
E01C00
E01E00
F01D00
E81C80
E41C40
E21C40
E21C40
E21C40
E21C40
F23C40
7A7C40
3FF240
1FE140
3FF080
787900
F83E00
E41D00
E3FC80
E21C40
E21C40
E21C40
E21C40
E21C40
E21C40
E21C40
520A40
2A0540
1602C0
0A0140
0600C0
000000
000000
ENDCHAR
STARTCHAR char_0x6e
ENCODING 110
SWIDTH 0 0
DWIDTH 18 0
BBX 18 33 0 -6
BITMAP
000000
000000
000000
000000
000000
000000
000000
000000
000000
000000
000000
000000
7FF800
FFFC00
FFFE00
F01D00
E81C80
E41C40
E3FC40
E21C40
E21C40
E21C40
E21C40
E21C40
E21C40
E21C40
E21C40
520A40
2A0540
1602C0
0E01C0
000000
000000
ENDCHAR
STARTCHAR char_0x72
ENCODING 114
SWIDTH 0 0
DWIDTH 18 0
BBX 18 33 0 -6
BITMAP
000000
000000
000000
000000
000000
000000
000000
000000
000000
000000
000000
000000
7FF800
FFFC00
FFFA00
F00500
E80300
E40100
E3FF00
E20000
E20000
E20000
E20000
E20000
E20000
E20000
E20000
520000
2A0000
160000
0E0000
000000
000000
ENDCHAR
ENDFONT
